<svg xmlns="http://www.w3.org/2000/svg" viewBox="0 0 100 100" fill="none">
  <title>SYSTVETAM</title>
  <ellipse cx="50" cy="62" rx="8" ry="22" fill="#C9A84C" opacity="0.9"/>
  <ellipse cx="50" cy="62" rx="8" ry="22" fill="#C9A84C" opacity="0.9" transform="rotate(40 50 50)"/>
  <ellipse cx="50" cy="62" rx="8" ry="22" fill="#C9A84C" opacity="0.9" transform="rotate(80 50 50)"/>
  <ellipse cx="50" cy="62" rx="8" ry="22" fill="#C9A84C" opacity="0.9" transform="rotate(120 50 50)"/>
  <ellipse cx="50" cy="62" rx="8" ry="22" fill="#C9A84C" opacity="0.9" transform="rotate(160 50 50)"/>
  <ellipse cx="50" cy="62" rx="8" ry="22" fill="#C9A84C" opacity="0.9" transform="rotate(200 50 50)"/>
  <ellipse cx="50" cy="62" rx="8" ry="22" fill="#C9A84C" opacity="0.9" transform="rotate(240 50 50)"/>
  <ellipse cx="50" cy="62" rx="8" ry="22" fill="#C9A84C" opacity="0.9" transform="rotate(280 50 50)"/>
  <ellipse cx="50" cy="62" rx="8" ry="22" fill="#C9A84C" opacity="0.9" transform="rotate(320 50 50)"/>
  <circle cx="50" cy="50" r="8" fill="#E8C97A"/>
</svg>
